/* XPM */
static char *_d387d45c25944b89856eac15394e61bwSqRXrFACfu2nwqJ[] = {
/* columns rows colors chars-per-pixel */
"64 64 32 1 ",
"  c black",
". c gray11",
"X c #202020",
"o c #2C2C2C",
"O c gray19",
"+ c gray22",
"@ c #484848",
"# c gray33",
"$ c gray36",
"% c gray44",
"& c #7C7C7C",
"* c gray55",
"= c #989898",
"- c gray66",
"; c #B4B4B4",
": c #C0C0C0",
"> c #D0D0D0",
", c gainsboro",
"< c white",
"1 c None",
"2 c black",
"3 c black",
"4 c black",
"5 c black",
"6 c black",
"7 c black",
"8 c black",
"9 c black",
"0 c black",
"q c black",
"w c black",
"e c black",
/* pixels */
";;;:::::>>,,,,,,,,>>>::::;;;-----*****&&&&&&%%%%%%&&&&&&**----;;",
"-***===--;;::::::::;;;---=***&&&&&%%%%%$$$###@@@@@@##$$$$%%&&&&#",
"-&&&*==----;:::::::;;;---=***&&&&&&%%%%$$$$$####@@@##$$$$%%&&&&#",
"-&&&***==--;;;;::::::;---====*&&&&&%%%%$$$$$####@@@###$$$$%%%%&#",
"*&&&@%*==---;;;:::@&:;;;;-===***@*&%%%%%$$$$#+$#@@@@@#$$$$@&%%&#",
"*&&&o@*==---;;;:::o@::;;;---=***o@&&&%%%%%$$$o+##@@@@#$$$$o@%%&#",
"*%%%&&&**==-;;;;::::::;;;---=***&&&&&%%%%%$$$####@@@@####$$%%%%#",
"*%%%&&&$$%%%&&&*--------*&&&%%%%$####@@@@@++++++OOOO..OOO$$%%%%@",
"&%%%&&&$*===---;::::::::;;;;-===***&&&&%%%%%$$$$####@@##%$$%%%%@",
"&%%%%&&#&**=---;;:::::::;;;;-===***&&&&%%%%%$$$$####@@##%#$$$$%@",
"&$%%%&&#&***===-;;;::::::;;;----=**&&&&&%%%%$$$$$####@@@%##$$$%@",
"&$$%%&&#&***===-;;;:::::::::;---=****&&&%%%%%$$$$####@@@$##$$$%@",
"&$$%%%%#&&&*===---;:::::::::;---=****&&&%%%%%$$$$####@@@$@#$$$$@",
"&$$$%%%#&&&***=----;;;::::::;----==**&&&&&%%%$$$$$$$###@$@####$+",
"&$$$$%%@%&&&&**===-;;;:::::::;;;-====**&&&%%%%%%$$$$$##@$@@###$+",
"&$$$$%%@%%&&&**===-;;;:::::::;;;;--==**&&&&&%%%%%$$$$###%@@###$+",
"&#$$$$$@%%&&&&*===----;::::::;;;;--==**&&&&&%%%%%$$$$###%@@####+",
"%###@&$@%%%%%&****=---;;::::::::;----==*&&&&%%%%%$$$$$$#%#+&@@#O",
"%###o@$@%%%%%&****=---;;;:::::::;;;--==***&&&%%%%%%%$$$#%#o+@@#O",
"%@###$$+$%%%%&&***=----;;:::::::;;;--==***&&&%%%%%%%$$$#%#@@@@#O",
"%@@##$$+$%%%%%&&&&*===-;;;;::::::;;----=**&&&%%%%%%%%$$$&###@@@O",
"%@@##$$+$%%%%%&&&&*===-;;;;::::::::;;--===**&&&&%%%%%$$$&###@@@X",
"&@@####+$$%%%%&&&&*====--;;::::::::;;--===**&&&&%%%%%$$$&###@@@X",
"&@@@@##O#$%%%%%&&&&***=----;:::::::;;;;-==**&&&&%%%%%%%$&$####@X",
"&#@@@@@O#$$$$%%&&&&****==--;:::::::::;;-====*&&&&%%%%%%$&$####@X",
"&#@@@@@O#$$$$%%&&&&****==--;:::::::::;;;--==*&&&&&&&%%%%*$$$###X",
"&#@@@@@O##$$$$%%%%&&&&*==---;;:::::::;;;--==*&&&&&&&%%%%*$$$###O",
"&##@@@@.@#$$$$%%%%&&&&***==-;;;;:::::::;----=***&&&&%%%%*$$$$$#O",
"&##@@@@.@#$$$$%%%%&&&&***==-;;;;:::::::;;;--=****&&&&%%%*%$$$$#O",
"&$####@.@####$$%%%%&&&&**===--;;:::::::;;;--=****&&&&%%%*%$$$$#O",
"&$####@.@@###$$%%%%%%%&&&**=--;;;;::::::;;---===*&&&&&&%*%$$$$$O",
"&$##@&@.@@###$$%%%%%%%&&&**=--;;;;::::::::;;-===****&&&%*%@&$$$+",
"&$$#o@#.@@#####$$$%%%%%&&&&*==---;;:::::::;;;--==***&&&&=%%@$$$+",
"&$$####.@@@@@##$$$%%%%%&&&&*==----;:::::::;;;---=***&&&&=%%%$$$+",
"*$$####.@@@@@##$$$%%%%%&&&&*==----;:::::::::;---====*&&&=%%%%%$+",
"*$$$$$#O#@@@@@#$$$$%%%%&&&&&**==--;;;;::::::;---====*&&&=%%%%%$+",
"*%$$$$#O#@@@@@##$$$%%%%&&&&&&*===-;;;;::::::::;;--===**&=&&%%%%+",
"*%$$$$$O##@@@@####$$$%%%%&&&&*====--;;::::::::;;--===**&=&&%%%%@",
"*%%$$$$O##@@@@@###$$$%%%%%&&&&***=----;:::::::;;;;-==**&=&&%%%%@",
"*%%$$$$+####@@@###$$$$$%%%&&&&***==---;:::::::::;;-====*-&&&%%%@",
"*%%%%%$+$###@@@@@@#$$$$%%%%%&&&**==---;;;;::::::;;--===*-&&&&&%@",
"-%%%%%$+$###@@@@@@#$$$$%%%%%&&&**==---;;;;:::::::;--====;*&&&&%@",
"-%%%%%%+$$$###@@@@####$$$%%%&&&&&**===-;;;;::::::;;--===;*&&&&%@",
"-&%%%%%+$$$###@@@@@####$$$$%%%&&&**===----;::::::;;----=;*&&&&&@",
"-&%%@&%@$$$####@@@@@###$$$$%%%&&&&*===----;:::::::;;---=;=@%&&&#",
"-&%%o@%@%$$$####@@@@@@#$$$$%%%&&&&&***=---;;::::::;;;---;=o@&&&#",
"-&&%%%%@%$$$####@@@@@@###$$$%%%%&&&***=----;::::::::;;;-;=****&#",
";&&&&&%@%%%$$$####@@@@###$$$%%%%&&&***=----;::::::::;;;-:-==**&#",
";&&&&&%@%%%$$$####@@@@@##$$$%%%%&&&&&&*===-;;;;::::::;;-:-==**&#",
";*&&&&%@%%%$$$$$###@@@@####$$$%%%%&&&&*====-;;;::::::;;;>-==***#",
":**&&&&@%%%%$$$$###@@@@@@##$$$%%%%%&&&&***=----;:::::::;>;--==*%",
":**&&&&@%%%%$$$$###@@@@@@##$$$%%%%%&&&&***=----;::::::::>;--===%",
":=*&&&&#&%%%$$$$$$####@@@###$$$$%%%&&&&****=---;;;::::::,;--===%",
":=****&#&%%%%%$$$$####@@@@@###$$%%%%%%&&&&*=----;;::::::,;;;--=%",
":=****&#&%%%%%$$$$####@@@@@###$$%%%%%%&&&&*=----;;::::::,:;;---%",
":-=***&#&&&%%%$$$$$####@@@@@##$$$$%%%%&&&&**===-;;;;::::,:;;---&",
">-====*#===*****&&&%%%%$$$$$%%%%&&*****===--;;;:::>>,,,,,:;;;;-&",
">-====*&&&&%%%%%$$$$$$#@@@@@####$$%%%%%&&&&*===---;;::::::::;;-&",
">;-=@&*&&&&&%%%%%%@&$$####@@@@##@&$%%%%%%%&&*@&=--;;;;::::@&;;-&",
">;--o@=**&&&&&%%%%o@$$$####@@@##o@$$$$%%%%&&*o@===--;;::::o@;;;&",
",;;---=****&&&%%%%%$$$$####@@@####$$$$%%%%&&***===--;;::::::::;*",
",;;---=****&&&%%%%%$$$$####@@@@@###$$$%%%%%&&&&*==----;:::::::;*",
",:;;;;-==**&&&&&%%%$$$$$$$##@@@@###$$$$%%%%%&&&***==--;;;;:::::*",
":===****&%%%%#####@@@+++++++OOXXXXOOO++++@@@@@###%%%%%&&****===="
};
